<mxfile host="app.diagrams.net" agent="Mozilla/5.0 (Macintosh; Intel Mac OS X 10_15_7) AppleWebKit/537.36 (KHTML, like Gecko) Chrome/131.0.0.0 Safari/537.36" version="26.2.12">
  <diagram name="Page-1" id="tJhM5H5wzWazFLdWPY-g">
    <mxGraphModel dx="3597" dy="1969" grid="1" gridSize="10" guides="1" tooltips="1" connect="1" arrows="1" fold="1" page="1" pageScale="1" pageWidth="850" pageHeight="1100" math="0" shadow="0">
      <root>
        <mxCell id="0" />
        <mxCell id="1" parent="0" />
        <mxCell id="xiSmAx-XeOhdxplPMCBd-1" value="" style="rounded=0;whiteSpace=wrap;html=1;" vertex="1" parent="1">
          <mxGeometry x="-170" y="40" width="870" height="780" as="geometry" />
        </mxCell>
        <mxCell id="xiSmAx-XeOhdxplPMCBd-2" value="" style="outlineConnect=0;dashed=0;verticalLabelPosition=bottom;verticalAlign=top;align=center;html=1;shape=mxgraph.aws3.virtual_private_cloud;fillColor=#F58534;gradientColor=none;" vertex="1" parent="1">
          <mxGeometry x="-160" y="44" width="79.5" height="54" as="geometry" />
        </mxCell>
        <mxCell id="xiSmAx-XeOhdxplPMCBd-3" value="" style="outlineConnect=0;dashed=0;verticalLabelPosition=bottom;verticalAlign=top;align=center;html=1;shape=mxgraph.aws3.application_load_balancer;fillColor=#F58536;gradientColor=none;" vertex="1" parent="1">
          <mxGeometry x="670" y="394" width="69" height="72" as="geometry" />
        </mxCell>
        <mxCell id="xiSmAx-XeOhdxplPMCBd-12" style="edgeStyle=orthogonalEdgeStyle;rounded=0;orthogonalLoop=1;jettySize=auto;html=1;entryX=0;entryY=0.5;entryDx=0;entryDy=0;" edge="1" parent="1" source="xiSmAx-XeOhdxplPMCBd-6" target="xiSmAx-XeOhdxplPMCBd-7">
          <mxGeometry relative="1" as="geometry" />
        </mxCell>
        <mxCell id="xiSmAx-XeOhdxplPMCBd-6" value="" style="rounded=1;whiteSpace=wrap;html=1;fillColor=default;fillStyle=auto;dashed=1;" vertex="1" parent="1">
          <mxGeometry x="-60" y="145" width="200" height="570" as="geometry" />
        </mxCell>
        <mxCell id="xiSmAx-XeOhdxplPMCBd-7" value="" style="rounded=1;whiteSpace=wrap;html=1;fillColor=default;fillStyle=auto;dashed=1;" vertex="1" parent="1">
          <mxGeometry x="290" y="145" width="200" height="570" as="geometry" />
        </mxCell>
        <mxCell id="xiSmAx-XeOhdxplPMCBd-8" value="" style="outlineConnect=0;dashed=0;verticalLabelPosition=bottom;verticalAlign=top;align=center;html=1;shape=mxgraph.aws3.rds;fillColor=#2E73B8;gradientColor=none;" vertex="1" parent="1">
          <mxGeometry y="110" width="72" height="81" as="geometry" />
        </mxCell>
        <mxCell id="xiSmAx-XeOhdxplPMCBd-9" value="" style="sketch=0;outlineConnect=0;fontColor=#232F3E;gradientColor=none;fillColor=#ED7100;strokeColor=none;dashed=0;verticalLabelPosition=bottom;verticalAlign=top;align=center;html=1;fontSize=12;fontStyle=0;aspect=fixed;pointerEvents=1;shape=mxgraph.aws4.auto_scaling2;" vertex="1" parent="1">
          <mxGeometry x="355" y="145" width="70" height="70" as="geometry" />
        </mxCell>
        <mxCell id="xiSmAx-XeOhdxplPMCBd-10" value="" style="outlineConnect=0;dashed=0;verticalLabelPosition=bottom;verticalAlign=top;align=center;html=1;shape=mxgraph.aws3.ec2;fillColor=#F58534;gradientColor=none;" vertex="1" parent="1">
          <mxGeometry x="349" y="383.5" width="76.5" height="93" as="geometry" />
        </mxCell>
        <mxCell id="xiSmAx-XeOhdxplPMCBd-11" style="edgeStyle=orthogonalEdgeStyle;rounded=0;orthogonalLoop=1;jettySize=auto;html=1;entryX=0;entryY=0.5;entryDx=0;entryDy=0;entryPerimeter=0;" edge="1" parent="1" source="xiSmAx-XeOhdxplPMCBd-7" target="xiSmAx-XeOhdxplPMCBd-3">
          <mxGeometry relative="1" as="geometry" />
        </mxCell>
        <mxCell id="xiSmAx-XeOhdxplPMCBd-13" value="" style="rounded=0;whiteSpace=wrap;html=1;" vertex="1" parent="1">
          <mxGeometry x="860" y="40" width="310" height="340" as="geometry" />
        </mxCell>
        <mxCell id="xiSmAx-XeOhdxplPMCBd-17" style="edgeStyle=orthogonalEdgeStyle;rounded=0;orthogonalLoop=1;jettySize=auto;html=1;entryX=1;entryY=0.5;entryDx=0;entryDy=0;entryPerimeter=0;" edge="1" parent="1" source="xiSmAx-XeOhdxplPMCBd-13" target="xiSmAx-XeOhdxplPMCBd-3">
          <mxGeometry relative="1" as="geometry" />
        </mxCell>
        <mxCell id="xiSmAx-XeOhdxplPMCBd-20" value="PostgreSQL" style="shape=rect;fillColor=#0F62FE;aspect=fixed;resizable=0;labelPosition=center;verticalLabelPosition=bottom;align=center;verticalAlign=top;strokeColor=none;fontSize=14;" vertex="1" parent="1">
          <mxGeometry x="16" y="394" width="48" height="48" as="geometry" />
        </mxCell>
        <mxCell id="xiSmAx-XeOhdxplPMCBd-21" value="" style="fillColor=#ffffff;strokeColor=none;dashed=0;outlineConnect=0;html=1;labelPosition=center;verticalLabelPosition=bottom;verticalAlign=top;part=1;movable=0;resizable=0;rotatable=0;shape=mxgraph.ibm_cloud.database--postgresql" vertex="1" parent="xiSmAx-XeOhdxplPMCBd-20">
          <mxGeometry width="24" height="24" relative="1" as="geometry">
            <mxPoint x="12" y="12" as="offset" />
          </mxGeometry>
        </mxCell>
        <mxCell id="xiSmAx-XeOhdxplPMCBd-34" style="edgeStyle=orthogonalEdgeStyle;rounded=0;orthogonalLoop=1;jettySize=auto;html=1;" edge="1" parent="1" source="xiSmAx-XeOhdxplPMCBd-28" target="xiSmAx-XeOhdxplPMCBd-7">
          <mxGeometry relative="1" as="geometry">
            <Array as="points">
              <mxPoint x="165" y="890" />
              <mxPoint x="390" y="890" />
            </Array>
          </mxGeometry>
        </mxCell>
        <mxCell id="xiSmAx-XeOhdxplPMCBd-28" value="" style="rounded=0;whiteSpace=wrap;html=1;" vertex="1" parent="1">
          <mxGeometry x="-160" y="960" width="650" height="230" as="geometry" />
        </mxCell>
        <mxCell id="xiSmAx-XeOhdxplPMCBd-25" value="Secrets Manager" style="shape=rect;fillColor=#FA4D56;aspect=fixed;resizable=0;labelPosition=center;verticalLabelPosition=bottom;align=center;verticalAlign=top;strokeColor=none;fontSize=14;" vertex="1" parent="1">
          <mxGeometry x="-120" y="740" width="48" height="48" as="geometry" />
        </mxCell>
        <mxCell id="xiSmAx-XeOhdxplPMCBd-26" value="" style="fillColor=#ffffff;strokeColor=none;dashed=0;outlineConnect=0;html=1;labelPosition=center;verticalLabelPosition=bottom;verticalAlign=top;part=1;movable=0;resizable=0;rotatable=0;shape=mxgraph.ibm_cloud.ibm-cloud--secrets-manager" vertex="1" parent="xiSmAx-XeOhdxplPMCBd-25">
          <mxGeometry width="24" height="24" relative="1" as="geometry">
            <mxPoint x="12" y="12" as="offset" />
          </mxGeometry>
        </mxCell>
        <mxCell id="xiSmAx-XeOhdxplPMCBd-29" value="" style="outlineConnect=0;dashed=0;verticalLabelPosition=bottom;verticalAlign=top;align=center;html=1;shape=mxgraph.aws3.codedeploy;fillColor=#759C3E;gradientColor=none;" vertex="1" parent="1">
          <mxGeometry x="340" y="1028.5" width="67.5" height="81" as="geometry" />
        </mxCell>
        <mxCell id="xiSmAx-XeOhdxplPMCBd-35" style="edgeStyle=orthogonalEdgeStyle;rounded=0;orthogonalLoop=1;jettySize=auto;html=1;" edge="1" parent="1" source="xiSmAx-XeOhdxplPMCBd-30" target="xiSmAx-XeOhdxplPMCBd-29">
          <mxGeometry relative="1" as="geometry">
            <Array as="points">
              <mxPoint x="350" y="1070" />
              <mxPoint x="350" y="1070" />
            </Array>
          </mxGeometry>
        </mxCell>
        <mxCell id="xiSmAx-XeOhdxplPMCBd-30" value="" style="outlineConnect=0;dashed=0;verticalLabelPosition=bottom;verticalAlign=top;align=center;html=1;shape=mxgraph.aws3.codebuild;fillColor=#759C3E;gradientColor=none;" vertex="1" parent="1">
          <mxGeometry x="120" y="1022.5" width="76.5" height="93" as="geometry" />
        </mxCell>
        <mxCell id="xiSmAx-XeOhdxplPMCBd-37" style="edgeStyle=orthogonalEdgeStyle;rounded=0;orthogonalLoop=1;jettySize=auto;html=1;" edge="1" parent="1" source="xiSmAx-XeOhdxplPMCBd-31" target="xiSmAx-XeOhdxplPMCBd-30">
          <mxGeometry relative="1" as="geometry" />
        </mxCell>
        <mxCell id="xiSmAx-XeOhdxplPMCBd-31" value="" style="outlineConnect=0;dashed=0;verticalLabelPosition=bottom;verticalAlign=top;align=center;html=1;shape=mxgraph.aws3.codepipeline;fillColor=#759C3E;gradientColor=none;" vertex="1" parent="1">
          <mxGeometry x="-90" y="1028.5" width="67.5" height="81" as="geometry" />
        </mxCell>
        <mxCell id="xiSmAx-XeOhdxplPMCBd-32" value="" style="dashed=0;outlineConnect=0;html=1;align=center;labelPosition=center;verticalLabelPosition=bottom;verticalAlign=top;shape=mxgraph.weblogos.github" vertex="1" parent="1">
          <mxGeometry x="30" y="1390" width="75" height="75" as="geometry" />
        </mxCell>
        <mxCell id="xiSmAx-XeOhdxplPMCBd-33" style="edgeStyle=orthogonalEdgeStyle;rounded=0;orthogonalLoop=1;jettySize=auto;html=1;entryX=0.035;entryY=1.003;entryDx=0;entryDy=0;entryPerimeter=0;" edge="1" parent="1" source="xiSmAx-XeOhdxplPMCBd-32" target="xiSmAx-XeOhdxplPMCBd-28">
          <mxGeometry relative="1" as="geometry" />
        </mxCell>
        <mxCell id="xiSmAx-XeOhdxplPMCBd-38" value="&lt;font style=&quot;font-size: 16px;&quot;&gt;AWS Codepipeline&lt;/font&gt;" style="text;html=1;align=center;verticalAlign=middle;whiteSpace=wrap;rounded=0;" vertex="1" parent="1">
          <mxGeometry x="-160" y="930" width="190" height="30" as="geometry" />
        </mxCell>
        <mxCell id="xiSmAx-XeOhdxplPMCBd-50" style="edgeStyle=orthogonalEdgeStyle;rounded=0;orthogonalLoop=1;jettySize=auto;html=1;entryX=0.5;entryY=1;entryDx=0;entryDy=0;" edge="1" parent="1" source="xiSmAx-XeOhdxplPMCBd-40" target="xiSmAx-XeOhdxplPMCBd-13">
          <mxGeometry relative="1" as="geometry" />
        </mxCell>
        <mxCell id="xiSmAx-XeOhdxplPMCBd-48" value="&lt;h1 style=&quot;margin-top: 0px;&quot;&gt;Master branch&lt;span style=&quot;white-space: pre;&quot;&gt;&#x9;&lt;/span&gt;&lt;/h1&gt;&lt;div&gt;&lt;p style=&quot;margin: calc(var(--ds-md-zoom)*12px)0; font-size: 16.002px; line-height: var(--ds-md-line-height); color: rgb(248, 250, 255); font-family: DeepSeek-CJK-patch, Inter, system-ui, -apple-system, &amp;quot;system-ui&amp;quot;, &amp;quot;Segoe UI&amp;quot;, Roboto, &amp;quot;Noto Sans&amp;quot;, Ubuntu, Cantarell, &amp;quot;Helvetica Neue&amp;quot;, Oxygen, &amp;quot;Open Sans&amp;quot;, sans-serif; background-color: rgb(41, 42, 45);&quot;&gt;&lt;strong&gt;Core Stack:&lt;/strong&gt;&lt;/p&gt;&lt;ul style=&quot;margin: calc(var(--ds-md-zoom)*12px)0; padding-left: calc(var(--ds-md-zoom)*24px); color: rgb(248, 250, 255); font-family: DeepSeek-CJK-patch, Inter, system-ui, -apple-system, &amp;quot;system-ui&amp;quot;, &amp;quot;Segoe UI&amp;quot;, Roboto, &amp;quot;Noto Sans&amp;quot;, Ubuntu, Cantarell, &amp;quot;Helvetica Neue&amp;quot;, Oxygen, &amp;quot;Open Sans&amp;quot;, sans-serif; font-size: 16.002px; background-color: rgb(41, 42, 45);&quot;&gt;&lt;li&gt;&lt;p style=&quot;margin-top: 0px; margin-right: 0px; margin-bottom: 0px !important; margin-left: 0px; font-size: var(--ds-md-font-size); line-height: var(--ds-md-line-height);&quot;&gt;&lt;strong&gt;Language&lt;/strong&gt;: Go (Golang)&lt;/p&gt;&lt;/li&gt;&lt;li style=&quot;margin-top: 4px;&quot;&gt;&lt;p style=&quot;margin-top: 0px; margin-right: 0px; margin-bottom: 0px !important; margin-left: 0px; font-size: var(--ds-md-font-size); line-height: var(--ds-md-line-height);&quot;&gt;&lt;strong&gt;Framework&lt;/strong&gt;: Gorilla Mux (HTTP router)&lt;/p&gt;&lt;/li&gt;&lt;li style=&quot;margin-top: 4px;&quot;&gt;&lt;p style=&quot;margin-top: 0px; margin-right: 0px; margin-bottom: 0px !important; margin-left: 0px; font-size: var(--ds-md-font-size); line-height: var(--ds-md-line-height);&quot;&gt;&lt;strong&gt;Database&lt;/strong&gt;: PostgreSQL (relational database)&lt;/p&gt;&lt;/li&gt;&lt;li style=&quot;margin-top: 4px;&quot;&gt;&lt;p style=&quot;margin-top: 0px; margin-right: 0px; margin-bottom: 0px !important; margin-left: 0px; font-size: var(--ds-md-font-size); line-height: var(--ds-md-line-height);&quot;&gt;&lt;strong&gt;API Style&lt;/strong&gt;: RESTful JSON API&lt;/p&gt;&lt;/li&gt;&lt;li style=&quot;margin-top: 4px;&quot;&gt;&lt;p style=&quot;margin-top: 0px; margin-right: 0px; margin-bottom: 0px !important; margin-left: 0px; font-size: var(--ds-md-font-size); line-height: var(--ds-md-line-height);&quot;&gt;&lt;strong&gt;Authentication&lt;/strong&gt;: Custom JWT-based middleware&lt;/p&gt;&lt;/li&gt;&lt;li style=&quot;margin-top: 4px;&quot;&gt;&lt;p style=&quot;margin-top: 0px; margin-right: 0px; margin-bottom: 0px !important; margin-left: 0px; font-size: var(--ds-md-font-size); line-height: var(--ds-md-line-height);&quot;&gt;&lt;strong&gt;CORS Handling&lt;/strong&gt;: RS/CORS middleware&lt;/p&gt;&lt;/li&gt;&lt;li style=&quot;margin-top: 4px;&quot;&gt;&lt;p style=&quot;margin-top: 0px; margin-right: 0px; margin-bottom: 0px !important; margin-left: 0px; font-size: var(--ds-md-font-size); line-height: var(--ds-md-line-height);&quot;&gt;&lt;strong&gt;Deployment&lt;/strong&gt;: HTTP server with configurable timeouts&lt;/p&gt;&lt;/li&gt;&lt;/ul&gt;&lt;/div&gt;" style="text;html=1;whiteSpace=wrap;overflow=hidden;rounded=0;" vertex="1" parent="1">
          <mxGeometry x="116" y="1280" width="224" height="332.5" as="geometry" />
        </mxCell>
        <mxCell id="xiSmAx-XeOhdxplPMCBd-49" value="&lt;h1 style=&quot;margin-top: 0px;&quot;&gt;Master branch&lt;span style=&quot;white-space: pre;&quot;&gt;&#x9;&lt;/span&gt;&lt;/h1&gt;&lt;div&gt;&lt;ul style=&quot;margin: calc(var(--ds-md-zoom)*12px)0; padding-left: calc(var(--ds-md-zoom)*24px); color: rgb(248, 250, 255); font-family: DeepSeek-CJK-patch, Inter, system-ui, -apple-system, &amp;quot;system-ui&amp;quot;, &amp;quot;Segoe UI&amp;quot;, Roboto, &amp;quot;Noto Sans&amp;quot;, Ubuntu, Cantarell, &amp;quot;Helvetica Neue&amp;quot;, Oxygen, &amp;quot;Open Sans&amp;quot;, sans-serif; font-size: 16.002px; background-color: rgb(41, 42, 45);&quot;&gt;&lt;li&gt;&lt;p style=&quot;margin-top: 0px; margin-right: 0px; margin-bottom: 0px !important; margin-left: 0px; font-size: var(--ds-md-font-size); line-height: var(--ds-md-line-height);&quot;&gt;&lt;strong style=&quot;font-size: var(--ds-md-font-size); background-color: light-dark(rgb(41, 42, 45), rgb(200, 201, 204)); color: light-dark(rgb(248, 250, 255), rgb(20, 22, 26));&quot;&gt;Core Stack:&lt;/strong&gt;&lt;/p&gt;&lt;/li&gt;&lt;li&gt;&lt;p style=&quot;margin-top: 0px; margin-right: 0px; margin-bottom: 0px !important; margin-left: 0px; font-size: var(--ds-md-font-size); line-height: var(--ds-md-line-height);&quot;&gt;&lt;strong style=&quot;font-size: var(--ds-md-font-size); background-color: light-dark(rgb(41, 42, 45), rgb(200, 201, 204)); color: light-dark(rgb(248, 250, 255), rgb(20, 22, 26));&quot;&gt;Frontend&lt;/strong&gt;&lt;span style=&quot;font-size: var(--ds-md-font-size); background-color: light-dark(rgb(41, 42, 45), rgb(200, 201, 204)); color: light-dark(rgb(248, 250, 255), rgb(20, 22, 26));&quot;&gt;: React with&amp;nbsp;&lt;/span&gt;&lt;strong style=&quot;font-size: var(--ds-md-font-size); background-color: light-dark(rgb(41, 42, 45), rgb(200, 201, 204)); color: light-dark(rgb(248, 250, 255), rgb(20, 22, 26));&quot;&gt;Material-UI (MUI)&lt;/strong&gt;&lt;span style=&quot;font-size: var(--ds-md-font-size); background-color: light-dark(rgb(41, 42, 45), rgb(200, 201, 204)); color: light-dark(rgb(248, 250, 255), rgb(20, 22, 26));&quot;&gt;&amp;nbsp;for a polished, responsive UI&lt;/span&gt;&lt;/p&gt;&lt;/li&gt;&lt;li style=&quot;margin-top: 4px;&quot;&gt;&lt;p style=&quot;margin-top: 0px; margin-right: 0px; margin-bottom: 0px !important; margin-left: 0px; font-size: var(--ds-md-font-size); line-height: var(--ds-md-line-height);&quot;&gt;&lt;strong&gt;State Management&lt;/strong&gt;: Redux or React Context API&lt;/p&gt;&lt;/li&gt;&lt;li style=&quot;margin-top: 4px;&quot;&gt;&lt;p style=&quot;margin-top: 0px; margin-right: 0px; margin-bottom: 0px !important; margin-left: 0px; font-size: var(--ds-md-font-size); line-height: var(--ds-md-line-height);&quot;&gt;&lt;strong&gt;Styling&lt;/strong&gt;: CSS-in-JS (Emotion/Styled Components) + MUI’s design system&lt;/p&gt;&lt;/li&gt;&lt;li style=&quot;margin-top: 4px;&quot;&gt;&lt;p style=&quot;margin: 0px 0px 4px; font-size: var(--ds-md-font-size); line-height: var(--ds-md-line-height);&quot;&gt;&lt;br&gt;&lt;/p&gt;&lt;ul style=&quot;margin-top: 4px; margin-right: ; margin-bottom: 0px; margin-left: ; padding-left: calc(var(--ds-md-zoom)*24px);&quot;&gt;&lt;li style=&quot;margin-top: 4px;&quot;&gt;&lt;p style=&quot;margin-top: 0px; margin-right: 0px; margin-bottom: 0px !important; margin-left: 0px; font-size: var(--ds-md-font-size); line-height: var(--ds-md-line-height);&quot;&gt;&lt;br&gt;&lt;/p&gt;&lt;/li&gt;&lt;/ul&gt;&lt;/li&gt;&lt;/ul&gt;&lt;/div&gt;" style="text;html=1;whiteSpace=wrap;overflow=hidden;rounded=0;" vertex="1" parent="1">
          <mxGeometry x="1070" y="1270" width="224" height="432.5" as="geometry" />
        </mxCell>
        <mxCell id="xiSmAx-XeOhdxplPMCBd-51" value="" style="sketch=0;outlineConnect=0;fontColor=#232F3E;gradientColor=none;fillColor=#7AA116;strokeColor=none;dashed=0;verticalLabelPosition=bottom;verticalAlign=top;align=center;html=1;fontSize=12;fontStyle=0;aspect=fixed;pointerEvents=1;shape=mxgraph.aws4.bucket;" vertex="1" parent="1">
          <mxGeometry x="977.5" y="150" width="75" height="78" as="geometry" />
        </mxCell>
        <mxCell id="xiSmAx-XeOhdxplPMCBd-55" style="edgeStyle=orthogonalEdgeStyle;rounded=0;orthogonalLoop=1;jettySize=auto;html=1;" edge="1" parent="1" source="xiSmAx-XeOhdxplPMCBd-53" target="xiSmAx-XeOhdxplPMCBd-54">
          <mxGeometry relative="1" as="geometry" />
        </mxCell>
        <mxCell id="xiSmAx-XeOhdxplPMCBd-53" value="" style="sketch=0;outlineConnect=0;fontColor=#232F3E;gradientColor=none;fillColor=#232F3D;strokeColor=none;dashed=0;verticalLabelPosition=bottom;verticalAlign=top;align=center;html=1;fontSize=12;fontStyle=0;aspect=fixed;pointerEvents=1;shape=mxgraph.aws4.user;" vertex="1" parent="1">
          <mxGeometry x="1900" y="370" width="78" height="78" as="geometry" />
        </mxCell>
        <mxCell id="xiSmAx-XeOhdxplPMCBd-58" style="edgeStyle=orthogonalEdgeStyle;rounded=0;orthogonalLoop=1;jettySize=auto;html=1;" edge="1" parent="1" source="xiSmAx-XeOhdxplPMCBd-63" target="xiSmAx-XeOhdxplPMCBd-13">
          <mxGeometry relative="1" as="geometry" />
        </mxCell>
        <mxCell id="xiSmAx-XeOhdxplPMCBd-54" value="" style="outlineConnect=0;dashed=0;verticalLabelPosition=bottom;verticalAlign=top;align=center;html=1;shape=mxgraph.aws3.route_53;fillColor=#F58536;gradientColor=none;" vertex="1" parent="1">
          <mxGeometry x="1670" y="366.25" width="70.5" height="85.5" as="geometry" />
        </mxCell>
        <mxCell id="xiSmAx-XeOhdxplPMCBd-56" value="&lt;font style=&quot;font-size: 16px;&quot;&gt;Static HTML files&lt;/font&gt;" style="text;html=1;align=center;verticalAlign=middle;whiteSpace=wrap;rounded=0;" vertex="1" parent="1">
          <mxGeometry x="985" y="260" width="60" height="30" as="geometry" />
        </mxCell>
        <mxCell id="xiSmAx-XeOhdxplPMCBd-60" value="&lt;font style=&quot;font-size: 16px;&quot;&gt;Route 53&lt;/font&gt;" style="text;html=1;align=center;verticalAlign=middle;whiteSpace=wrap;rounded=0;" vertex="1" parent="1">
          <mxGeometry x="1647.87" y="313" width="114.75" height="30" as="geometry" />
        </mxCell>
        <mxCell id="xiSmAx-XeOhdxplPMCBd-61" value="&lt;font style=&quot;font-size: 16px;&quot;&gt;Autoscale group&lt;/font&gt;" style="text;html=1;align=center;verticalAlign=middle;whiteSpace=wrap;rounded=0;" vertex="1" parent="1">
          <mxGeometry x="327.5" y="115" width="125" height="30" as="geometry" />
        </mxCell>
        <mxCell id="xiSmAx-XeOhdxplPMCBd-62" value="&lt;font style=&quot;font-size: 16px;&quot;&gt;Ec2 instance&lt;/font&gt;" style="text;html=1;align=center;verticalAlign=middle;whiteSpace=wrap;rounded=0;" vertex="1" parent="1">
          <mxGeometry x="360" y="500" width="60" height="30" as="geometry" />
        </mxCell>
        <mxCell id="xiSmAx-XeOhdxplPMCBd-64" value="" style="edgeStyle=orthogonalEdgeStyle;rounded=0;orthogonalLoop=1;jettySize=auto;html=1;" edge="1" parent="1" source="xiSmAx-XeOhdxplPMCBd-54" target="xiSmAx-XeOhdxplPMCBd-63">
          <mxGeometry relative="1" as="geometry">
            <mxPoint x="1670" y="409" as="sourcePoint" />
            <mxPoint x="1170" y="210" as="targetPoint" />
          </mxGeometry>
        </mxCell>
        <mxCell id="xiSmAx-XeOhdxplPMCBd-65" style="edgeStyle=orthogonalEdgeStyle;rounded=0;orthogonalLoop=1;jettySize=auto;html=1;" edge="1" parent="1" source="xiSmAx-XeOhdxplPMCBd-63" target="xiSmAx-XeOhdxplPMCBd-3">
          <mxGeometry relative="1" as="geometry">
            <Array as="points">
              <mxPoint x="1398" y="610" />
              <mxPoint x="800" y="610" />
              <mxPoint x="800" y="430" />
            </Array>
          </mxGeometry>
        </mxCell>
        <mxCell id="xiSmAx-XeOhdxplPMCBd-63" value="" style="outlineConnect=0;dashed=0;verticalLabelPosition=bottom;verticalAlign=top;align=center;html=1;shape=mxgraph.aws3.cloudfront;fillColor=#F58536;gradientColor=none;" vertex="1" parent="1">
          <mxGeometry x="1360" y="362" width="76.5" height="94" as="geometry" />
        </mxCell>
        <mxCell id="xiSmAx-XeOhdxplPMCBd-66" value="" style="outlineConnect=0;dashed=0;verticalLabelPosition=bottom;verticalAlign=top;align=center;html=1;shape=mxgraph.aws3.s3;fillColor=#E05243;gradientColor=none;" vertex="1" parent="1">
          <mxGeometry x="860" y="44" width="76.5" height="93" as="geometry" />
        </mxCell>
        <mxCell id="xiSmAx-XeOhdxplPMCBd-68" value="&lt;font style=&quot;font-size: 16px;&quot;&gt;AWS CodeBuild&lt;/font&gt;" style="text;html=1;align=center;verticalAlign=middle;whiteSpace=wrap;rounded=0;" vertex="1" parent="1">
          <mxGeometry x="97.38" y="1140" width="121.75" height="30" as="geometry" />
        </mxCell>
        <mxCell id="xiSmAx-XeOhdxplPMCBd-73" value="&lt;font style=&quot;font-size: 16px;&quot;&gt;AWS Codedeploy&lt;/font&gt;" style="text;html=1;align=center;verticalAlign=middle;whiteSpace=wrap;rounded=0;" vertex="1" parent="1">
          <mxGeometry x="298.75" y="1140" width="150" height="30" as="geometry" />
        </mxCell>
        <mxCell id="xiSmAx-XeOhdxplPMCBd-74" style="edgeStyle=orthogonalEdgeStyle;rounded=0;orthogonalLoop=1;jettySize=auto;html=1;entryX=0.5;entryY=1;entryDx=0;entryDy=0;" edge="1" parent="1" source="xiSmAx-XeOhdxplPMCBd-26" target="xiSmAx-XeOhdxplPMCBd-7">
          <mxGeometry relative="1" as="geometry" />
        </mxCell>
        <mxCell id="xiSmAx-XeOhdxplPMCBd-75" value="&lt;font style=&quot;font-size: 16px;&quot;&gt;AWS Cloudfront&lt;/font&gt;" style="text;html=1;align=center;verticalAlign=middle;whiteSpace=wrap;rounded=0;" vertex="1" parent="1">
          <mxGeometry x="1340.8799999999999" y="313" width="114.75" height="30" as="geometry" />
        </mxCell>
        <mxCell id="xiSmAx-XeOhdxplPMCBd-76" value="" style="group" vertex="1" connectable="0" parent="1">
          <mxGeometry x="690" y="920" width="650" height="525" as="geometry" />
        </mxCell>
        <mxCell id="xiSmAx-XeOhdxplPMCBd-39" value="" style="dashed=0;outlineConnect=0;html=1;align=center;labelPosition=center;verticalLabelPosition=bottom;verticalAlign=top;shape=mxgraph.weblogos.github" vertex="1" parent="xiSmAx-XeOhdxplPMCBd-76">
          <mxGeometry x="290" y="450" width="75" height="75" as="geometry" />
        </mxCell>
        <mxCell id="xiSmAx-XeOhdxplPMCBd-40" value="" style="rounded=0;whiteSpace=wrap;html=1;" vertex="1" parent="xiSmAx-XeOhdxplPMCBd-76">
          <mxGeometry y="30" width="650" height="230" as="geometry" />
        </mxCell>
        <mxCell id="xiSmAx-XeOhdxplPMCBd-41" value="" style="outlineConnect=0;dashed=0;verticalLabelPosition=bottom;verticalAlign=top;align=center;html=1;shape=mxgraph.aws3.codedeploy;fillColor=#759C3E;gradientColor=none;" vertex="1" parent="xiSmAx-XeOhdxplPMCBd-76">
          <mxGeometry x="500" y="98.5" width="67.5" height="81" as="geometry" />
        </mxCell>
        <mxCell id="xiSmAx-XeOhdxplPMCBd-42" style="edgeStyle=orthogonalEdgeStyle;rounded=0;orthogonalLoop=1;jettySize=auto;html=1;" edge="1" parent="xiSmAx-XeOhdxplPMCBd-76" source="xiSmAx-XeOhdxplPMCBd-43" target="xiSmAx-XeOhdxplPMCBd-41">
          <mxGeometry relative="1" as="geometry">
            <Array as="points">
              <mxPoint x="510" y="140" />
              <mxPoint x="510" y="140" />
            </Array>
          </mxGeometry>
        </mxCell>
        <mxCell id="xiSmAx-XeOhdxplPMCBd-43" value="" style="outlineConnect=0;dashed=0;verticalLabelPosition=bottom;verticalAlign=top;align=center;html=1;shape=mxgraph.aws3.codebuild;fillColor=#759C3E;gradientColor=none;" vertex="1" parent="xiSmAx-XeOhdxplPMCBd-76">
          <mxGeometry x="280" y="92.5" width="76.5" height="93" as="geometry" />
        </mxCell>
        <mxCell id="xiSmAx-XeOhdxplPMCBd-44" style="edgeStyle=orthogonalEdgeStyle;rounded=0;orthogonalLoop=1;jettySize=auto;html=1;" edge="1" parent="xiSmAx-XeOhdxplPMCBd-76" source="xiSmAx-XeOhdxplPMCBd-45" target="xiSmAx-XeOhdxplPMCBd-43">
          <mxGeometry relative="1" as="geometry" />
        </mxCell>
        <mxCell id="xiSmAx-XeOhdxplPMCBd-45" value="" style="outlineConnect=0;dashed=0;verticalLabelPosition=bottom;verticalAlign=top;align=center;html=1;shape=mxgraph.aws3.codepipeline;fillColor=#759C3E;gradientColor=none;" vertex="1" parent="xiSmAx-XeOhdxplPMCBd-76">
          <mxGeometry x="70" y="98.5" width="67.5" height="81" as="geometry" />
        </mxCell>
        <mxCell id="xiSmAx-XeOhdxplPMCBd-46" value="&lt;font style=&quot;font-size: 16px;&quot;&gt;AWS Codepipeline&lt;/font&gt;" style="text;html=1;align=center;verticalAlign=middle;whiteSpace=wrap;rounded=0;" vertex="1" parent="xiSmAx-XeOhdxplPMCBd-76">
          <mxGeometry width="190" height="30" as="geometry" />
        </mxCell>
        <mxCell id="xiSmAx-XeOhdxplPMCBd-47" style="edgeStyle=orthogonalEdgeStyle;rounded=0;orthogonalLoop=1;jettySize=auto;html=1;entryX=0.135;entryY=1.004;entryDx=0;entryDy=0;entryPerimeter=0;" edge="1" parent="xiSmAx-XeOhdxplPMCBd-76" source="xiSmAx-XeOhdxplPMCBd-39" target="xiSmAx-XeOhdxplPMCBd-40">
          <mxGeometry relative="1" as="geometry" />
        </mxCell>
        <mxCell id="xiSmAx-XeOhdxplPMCBd-67" value="&lt;font style=&quot;font-size: 16px;&quot;&gt;AWS CodeBuild&lt;/font&gt;" style="text;html=1;align=center;verticalAlign=middle;whiteSpace=wrap;rounded=0;" vertex="1" parent="xiSmAx-XeOhdxplPMCBd-76">
          <mxGeometry x="257.38" y="210" width="121.75" height="30" as="geometry" />
        </mxCell>
        <mxCell id="xiSmAx-XeOhdxplPMCBd-70" value="&lt;font style=&quot;font-size: 16px;&quot;&gt;AWS Codedeploy&lt;/font&gt;" style="text;html=1;align=center;verticalAlign=middle;whiteSpace=wrap;rounded=0;" vertex="1" parent="xiSmAx-XeOhdxplPMCBd-76">
          <mxGeometry x="458.75" y="210" width="150" height="30" as="geometry" />
        </mxCell>
      </root>
    </mxGraphModel>
  </diagram>
</mxfile>
